<svg width="348" height="102" viewBox="0 0 348 102" fill="none" xmlns="http://www.w3.org/2000/svg">
<path d="M133.112 72.0742H126.96V66.6814H126.808C123.997 70.4792 120.655 72.9857 114.959 72.9857C106.908 72.9857 101.743 68.1246 101.743 59.9974V32.8055H107.895V59.8455C107.895 64.9345 111.161 67.8967 116.706 67.8967C122.934 67.8967 126.96 63.1875 126.96 56.9592V32.8055H133.112V72.0742ZM172.269 72.454C168.244 72.454 166.117 70.6311 165.509 66.6055H165.433C163.079 69.6437 159.053 72.8338 152.369 72.8338C144.925 72.8338 139.077 69.3398 139.077 61.8963C139.077 52.6297 146.369 50.7309 156.167 49.2118C161.711 48.3763 165.585 47.8446 165.585 43.5911C165.585 39.1857 162.395 36.6792 156.774 36.6792C150.394 36.6792 147.204 39.4136 146.976 45.3381H141.052C141.28 37.7426 146.293 32.046 156.698 32.046C165.053 32.046 171.206 35.1601 171.206 44.5026V63.1875C171.206 66.3776 171.965 68.1246 175.383 67.365H175.611V71.8464C174.852 72.1502 173.864 72.454 172.269 72.454ZM153.736 68.1246C161.939 68.1246 165.661 62.1241 165.661 57.5668V50.8828C163.61 52.174 160.04 53.1614 156.698 53.7691C150.546 54.9084 145.609 55.9718 145.609 61.7443C145.609 66.9852 149.711 68.1246 153.736 68.1246ZM186.303 32.8055V37.9704H186.455C189.265 34.2486 193.215 31.894 198.912 31.894C207.115 31.894 212.128 36.3754 212.128 44.5026V72.0742H205.975V45.0343C205.975 39.9453 202.633 37.059 197.089 37.059C190.86 37.059 186.303 41.4644 186.303 47.9205V72.0742H180.151V32.8055H186.303ZM217.031 37.8185V32.8055H222.728V20.4248H228.88V32.8055H236.475V37.8185H228.88V63.3394C228.88 66.0738 230.323 66.9852 232.83 66.9852C234.045 66.9852 235.412 66.6814 236.096 66.4536H236.324V71.7704C234.88 72.0742 233.209 72.3021 231.386 72.3021C226.373 72.3021 222.728 70.2513 222.728 64.7066V37.8185H217.031ZM273.97 72.0742H267.818V66.6814H267.666C264.855 70.4792 261.513 72.9857 255.817 72.9857C247.765 72.9857 242.601 68.1246 242.601 59.9974V32.8055H248.753V59.8455C248.753 64.9345 252.019 67.8967 257.564 67.8967C263.792 67.8967 267.818 63.1875 267.818 56.9592V32.8055H273.97V72.0742ZM282.289 72.0742V32.8055H288.442V38.4262H288.594C291.024 34.6284 295.202 31.894 300.139 31.894C304.924 31.894 308.722 34.3246 310.393 38.8819H310.545C313.051 34.4006 317.76 31.894 322.545 31.894C329.533 31.894 334.47 36.3754 334.47 44.5026V72.0742H328.318V44.8064C328.318 39.9453 325.052 37.059 321.102 37.059C316.013 37.059 311.456 41.4644 311.456 47.6167V72.0742H305.304V44.8064C305.304 39.9453 302.569 37.059 298.544 37.059C293.759 37.059 288.442 41.4644 288.442 47.6167V72.0742H282.289Z" fill="#ECFFFF"/>
<path d="M103.955 95.0742V87.1783H107.423C108.339 87.1783 109.024 87.4433 109.488 87.9182C109.929 88.371 110.194 88.9894 110.194 89.7182C110.194 91.2091 109.212 92.214 107.555 92.214H105.612V95.0742H103.955ZM105.612 88.5697V90.9109H107.268C108.107 90.9109 108.549 90.4471 108.549 89.7293C108.549 88.9894 108.085 88.5697 107.29 88.5697H105.612ZM118.979 95.2509C116.649 95.2509 115.169 93.5061 115.169 91.1428C115.169 88.7796 116.649 87.0237 118.979 87.0237C121.309 87.0237 122.778 88.7796 122.778 91.1428C122.778 93.5061 121.309 95.2509 118.979 95.2509ZM118.99 93.9368C120.437 93.9368 121.144 92.711 121.144 91.1428C121.144 89.5636 120.437 88.3378 118.99 88.3378C117.544 88.3378 116.804 89.5636 116.804 91.1428C116.804 92.711 117.544 93.9368 118.99 93.9368ZM129.482 95.0742L127.185 87.1783H128.819L129.846 91.0986C130.001 91.7723 130.188 92.8214 130.188 92.8214H130.211C130.211 92.8214 130.409 91.8385 130.575 91.1428L131.436 87.1783H132.982L133.844 91.1318C134.009 91.8275 134.208 92.8214 134.208 92.8214H134.23C134.23 92.8214 134.462 91.7723 134.617 91.0876L135.611 87.1783H137.19L134.937 95.0742H133.446L132.485 90.8447C132.353 90.2704 132.209 89.4422 132.209 89.4422H132.187C132.187 89.4422 132.066 90.2704 131.933 90.8447L130.961 95.0742H129.482ZM142.27 95.0742V87.1783H148.079V88.5256H143.871V90.2925H147.56V91.6066H143.871V93.738H148.112V95.0742H142.27ZM153.525 95.0742V87.1783H157.147C158.671 87.1783 159.687 88.0618 159.687 89.3759C159.687 90.3035 159.256 91.0103 158.24 91.2864V91.3195C158.969 91.5293 159.344 91.949 159.444 92.9097C159.554 94.0251 159.51 94.8754 159.786 94.9969V95.0742H158.251C158.052 94.9859 158.03 94.1024 157.964 93.2521C157.898 92.3907 157.412 91.9048 156.418 91.9048H155.126V95.0742H153.525ZM155.126 88.4704V90.668H156.827C157.699 90.668 158.13 90.2152 158.13 89.5857C158.13 88.9452 157.721 88.4704 156.871 88.4704H155.126ZM165.135 95.0742V87.1783H170.944V88.5256H166.736V90.2925H170.425V91.6066H166.736V93.738H170.977V95.0742H165.135ZM176.39 95.0742V87.1783H179.471C181.58 87.1783 182.938 88.879 182.938 91.2091C182.938 92.4901 182.508 93.6165 181.679 94.3122C181.094 94.7981 180.332 95.0742 179.338 95.0742H176.39ZM177.991 93.6938H179.228C180.73 93.6938 181.315 92.7772 181.315 91.2091C181.315 89.6409 180.63 88.5477 179.272 88.5477H177.991V93.6938ZM194.499 95.0742V87.1783H198.033C198.883 87.1783 199.535 87.3881 199.943 87.7525C200.374 88.1391 200.573 88.6139 200.573 89.2323C200.573 90.0385 200.076 90.5575 199.336 90.8115V90.8447C200.208 91.0986 200.805 91.8275 200.805 92.7993C200.805 93.5392 200.573 94.0472 200.109 94.4448C199.656 94.8423 198.96 95.0742 198.121 95.0742H194.499ZM196.1 91.5404V93.749H197.944C198.717 93.749 199.181 93.3183 199.181 92.6778C199.181 91.9269 198.629 91.5404 197.9 91.5404H196.1ZM196.1 90.3587H197.834C198.53 90.3587 199.005 90.0275 199.005 89.409C199.005 88.8237 198.574 88.4814 197.867 88.4814H196.1V90.3587ZM207.948 95.0742V92.0263L205.32 87.1783H207.065L208.257 89.5195C208.5 89.9943 208.776 90.6459 208.776 90.6459H208.798C208.798 90.6459 209.097 89.9943 209.328 89.5195L210.499 87.1783H212.178L209.549 92.0263V95.0742H207.948ZM223.518 95.0742V87.1783H227.051C227.902 87.1783 228.553 87.3881 228.962 87.7525C229.393 88.1391 229.591 88.6139 229.591 89.2323C229.591 90.0385 229.094 90.5575 228.355 90.8115V90.8447C229.227 91.0986 229.823 91.8275 229.823 92.7993C229.823 93.5392 229.591 94.0472 229.128 94.4448C228.675 94.8423 227.979 95.0742 227.14 95.0742H223.518ZM225.119 91.5404V93.749H226.963C227.736 93.749 228.2 93.3183 228.2 92.6778C228.2 91.9269 227.648 91.5404 226.919 91.5404H225.119ZM225.119 90.3587H226.853C227.548 90.3587 228.023 90.0275 228.023 89.409C228.023 88.8237 227.593 88.4814 226.886 88.4814H225.119V90.3587ZM238.704 95.2509C236.373 95.2509 234.894 93.5061 234.894 91.1428C234.894 88.7796 236.373 87.0237 238.704 87.0237C241.034 87.0237 242.502 88.7796 242.502 91.1428C242.502 93.5061 241.034 95.2509 238.704 95.2509ZM238.715 93.9368C240.161 93.9368 240.868 92.711 240.868 91.1428C240.868 89.5636 240.161 88.3378 238.715 88.3378C237.268 88.3378 236.528 89.5636 236.528 91.1428C236.528 92.711 237.268 93.9368 238.715 93.9368ZM247.796 95.0742V87.1783H250.048L251.164 91.1428C251.44 92.1367 251.661 93.2742 251.661 93.2742H251.683C251.683 93.2742 251.893 92.1367 252.169 91.1428L253.284 87.1783H255.57V95.0742H254.079V90.5465C254.079 89.906 254.145 88.9121 254.145 88.9121H254.123C254.123 88.9121 253.947 89.8397 253.781 90.414L252.423 95.0742H250.888L249.562 90.414C249.397 89.8397 249.22 88.9121 249.22 88.9121H249.198C249.198 88.9121 249.264 89.906 249.264 90.5465V95.0742H247.796ZM260.633 95.0742L263.383 87.1783H265.039L267.822 95.0742H266.154L265.624 93.3956H262.775L262.256 95.0742H260.633ZM263.857 89.8949L263.151 92.1698H265.238L264.531 89.8949C264.399 89.4753 264.211 88.6802 264.211 88.6802H264.189C264.189 88.6802 263.99 89.4753 263.857 89.8949ZM272.904 95.0742V87.1783H276.526C278.05 87.1783 279.066 88.0618 279.066 89.3759C279.066 90.3035 278.635 91.0103 277.619 91.2864V91.3195C278.348 91.5293 278.724 91.949 278.823 92.9097C278.933 94.0251 278.889 94.8754 279.165 94.9969V95.0742H277.63C277.432 94.9859 277.41 94.1024 277.343 93.2521C277.277 92.3907 276.791 91.9048 275.797 91.9048H274.505V95.0742H272.904ZM274.505 88.4704V90.668H276.206C277.078 90.668 277.509 90.2152 277.509 89.5857C277.509 88.9452 277.1 88.4704 276.25 88.4704H274.505ZM284.514 95.0742V87.1783H286.116V90.3256L289.153 87.1783H291.14L288.048 90.3367L291.339 95.0742H289.462L286.922 91.3858L286.116 92.203V95.0742H284.514Z" fill="#A0B0AB"/>
<path d="M93.1232 80.6112V99.6018H47.7047C47.2821 99.6018 46.8626 99.5954 46.4431 99.5828C22.1158 98.9149 2.60156 78.9147 2.60156 54.3409C2.60156 29.7671 22.7939 9.08008 47.7047 9.08008C72.6155 9.08008 92.8078 29.343 92.8078 54.3409C92.8078 61.1237 91.3191 67.5552 88.6571 73.3315H65.7649C70.7609 68.5459 73.8834 61.8042 73.8834 54.3409C73.8834 39.8543 62.1409 28.0706 47.7047 28.0706C33.2685 28.0706 21.526 39.8543 21.526 54.3409C21.526 68.8275 33.0982 80.4308 47.3893 80.6017V80.6112H93.1232Z" fill="url(#paint0_linear_573_4637)"/>
<defs>
<linearGradient id="paint0_linear_573_4637" x1="25.3589" y1="22.2228" x2="57.0146" y2="96.1343" gradientUnits="userSpaceOnUse">
<stop stop-color="#B2883E"/>
<stop offset="0.132936" stop-color="#E0B54D"/>
<stop offset="0.186698" stop-color="#ECD799"/>
<stop offset="0.325922" stop-color="#AB8C40"/>
<stop offset="0.558973" stop-color="#E0B54D"/>
<stop offset="0.682701" stop-color="#C29743"/>
<stop offset="1" stop-color="#FEF2BD"/>
</linearGradient>
</defs>
</svg>
